<svg width="21" height="21" viewBox="0 0 21 21" fill="none" xmlns="http://www.w3.org/2000/svg">
<path d="M17.6449 9.00462C17.387 8.88988 14.972 7.81484 14.7132 7.7001C13.4988 7.1595 12.0765 7.70626 11.5366 8.91991L18.8647 12.1812C19.4053 10.9668 18.8586 9.54445 17.6449 9.00462ZM19.4161 1.07737C19.0111 0.897166 18.5806 0.943371 18.4489 1.19057L14.9403 7.80104L17.3076 8.85375L19.9798 1.87132C20.0753 1.60795 19.8212 1.25757 19.4161 1.07737Z" stroke="#3366FF" stroke-width="1.4" stroke-linecap="round" stroke-linejoin="round"/>
<path d="M17.6772 13.2177C16.1732 17.7966 14.2264 20.167 14.2264 20.167C14.2264 20.167 7.52132 19.9236 3.17188 14.5546C4.06979 14.6185 9.66754 14.1372 11.5958 10.4185" stroke="#3366FF" stroke-width="1.4" stroke-linecap="round" stroke-linejoin="round"/>
<path d="M5.77051 17.0255C5.77051 17.0255 7.89439 16.7455 9.03412 15.5549C8.12233 17.2268 7.03653 17.861 7.03653 17.861L5.77051 17.0255ZM8.76457 18.6996C8.76457 18.6996 10.4349 18.7184 13.2765 16.1009C12.2546 18.4312 10.922 19.5622 10.922 19.5622L8.76457 18.6996Z" stroke="#3366FF" stroke-width="1.4" stroke-linecap="round" stroke-linejoin="round"/>
<path d="M1.20337 8.04424C1.27136 8.01608 1.34423 8.00159 1.41782 8.00159C1.49142 8.00159 1.56429 8.01608 1.63228 8.04424C1.70027 8.07241 1.76205 8.11369 1.81409 8.16572C1.86612 8.21776 1.9074 8.27954 1.93557 8.34753C1.96373 8.41552 1.97822 8.4884 1.97822 8.56199C1.97822 8.63558 1.96373 8.70845 1.93557 8.77644C1.9074 8.84444 1.86612 8.90621 1.81409 8.95825C1.76205 9.01029 1.70027 9.05157 1.63228 9.07973C1.56429 9.10789 1.49142 9.12239 1.41782 9.12239C1.34423 9.12239 1.27136 9.10789 1.20337 9.07973C1.13538 9.05157 1.0736 9.01029 1.02156 8.95825C0.969521 8.90621 0.928243 8.84444 0.90008 8.77644C0.871917 8.70845 0.857422 8.63558 0.857422 8.56199C0.857422 8.4884 0.871917 8.41552 0.90008 8.34753C0.928243 8.27954 0.969521 8.21776 1.02156 8.16572C1.0736 8.11369 1.13538 8.07241 1.20337 8.04424Z" fill="#3366FF"/>
<path d="M2.83485 8.48461C2.90491 8.41455 2.99994 8.37519 3.09903 8.37519C3.19811 8.37519 3.29314 8.41455 3.3632 8.48461C3.43327 8.55468 3.47263 8.6497 3.47263 8.74879C3.47263 8.84787 3.43327 8.9429 3.3632 9.01296C3.29314 9.08303 3.19811 9.12239 3.09903 9.12239C2.99994 9.12239 2.90491 9.08303 2.83485 9.01296C2.76479 8.9429 2.72543 8.84787 2.72543 8.74879C2.72543 8.6497 2.76479 8.55468 2.83485 8.48461Z" fill="#3366FF"/>
<path d="M2.25179 10.1432C2.42695 9.96799 2.66451 9.86959 2.91223 9.86959C3.15994 9.86959 3.39751 9.96799 3.57266 10.1432C3.74782 10.3183 3.84623 10.5559 3.84623 10.8036C3.84623 11.0513 3.74782 11.2889 3.57266 11.464C3.39751 11.6392 3.15994 11.7376 2.91223 11.7376C2.66451 11.7376 2.42695 11.6392 2.25179 11.464C2.07663 11.2889 1.97822 11.0513 1.97822 10.8036C1.97822 10.5559 2.07663 10.3183 2.25179 10.1432Z" fill="#3366FF"/>
</svg>
